<?xml version="1.0" standalone="no"?>
<!DOCTYPE svg PUBLIC "-//W3C//DTD SVG 20010904//EN"
 "http://www.w3.org/TR/2001/REC-SVG-20010904/DTD/svg10.dtd">
<svg version="1.0" xmlns="http://www.w3.org/2000/svg"
 width="385.000000pt" height="132.000000pt" viewBox="0 0 385.000000 132.000000"
 preserveAspectRatio="xMidYMid meet">
<metadata>
Created by potrace 1.16, written by Peter Selinger 2001-2019
</metadata>
<g transform="translate(0.000000,132.000000) scale(0.100000,-0.100000)"
fill="#000000" stroke="none">
<path d="M1840 953 c1 -31 3 -35 11 -20 5 9 15 17 21 17 6 0 17 -8 24 -17 11
-15 11 -13 5 17 -5 28 -12 36 -34 38 -25 3 -27 1 -27 -35z m50 17 c0 -5 -7
-10 -15 -10 -8 0 -15 5 -15 10 0 6 7 10 15 10 8 0 15 -4 15 -10z"/>
<path d="M1927 983 c-14 -13 -7 -25 8 -13 8 7 22 10 30 6 9 -3 13 -2 10 4 -7
11 -38 13 -48 3z"/>
<path d="M2042 983 c-8 -3 -10 -9 -3 -16 5 -7 11 -21 14 -32 3 -12 5 -4 6 18
0 20 0 37 -1 36 -2 0 -9 -3 -16 -6z"/>
<path d="M2090 975 c-16 -19 -3 -55 21 -55 10 0 19 4 19 10 0 5 -7 7 -15 4
-11 -5 -15 1 -15 20 0 34 10 33 39 -4 28 -36 51 -39 50 -7 -1 16 -2 18 -6 5
-7 -27 -23 -21 -23 8 0 21 4 25 18 19 13 -5 14 -4 5 6 -10 10 -16 9 -28 -1
-12 -10 -19 -10 -27 -2 -16 16 -23 15 -38 -3z"/>
<path d="M2207 975 c-4 -8 -2 -17 3 -20 6 -4 10 1 10 9 0 9 5 16 10 16 18 0
11 -48 -7 -53 -17 -4 -17 -5 0 -6 21 -1 39 39 25 57 -14 16 -35 15 -41 -3z"/>
<path d="M2273 975 c-3 -9 -3 -19 1 -22 3 -4 6 1 6 10 0 10 5 17 10 17 6 0 10
-10 10 -22 0 -17 3 -19 12 -10 8 8 8 15 -2 27 -16 19 -29 19 -37 0z"/>
<path d="M2333 975 c-3 -9 -3 -19 1 -22 3 -4 6 2 6 11 0 12 5 16 16 12 8 -3
12 -2 9 4 -9 15 -25 12 -32 -5z"/>
<path d="M2393 975 c-3 -9 -3 -19 1 -22 3 -4 6 1 6 10 0 10 5 17 10 17 15 0
12 -47 -2 -53 -10 -4 -10 -6 -1 -6 17 -1 34 34 27 53 -8 20 -33 21 -41 1z"/>
<path d="M821 896 l-111 -51 0 -176 0 -176 -87 -12 c-49 -7 -97 -16 -108 -21
-11 -4 266 -6 615 -3 349 3 639 9 643 13 4 4 -36 14 -89 23 -53 9 -98 17 -99
19 -3 3 -7 90 -6 119 1 10 13 19 33 23 18 3 49 11 70 17 l38 10 0 79 c0 79 0
80 -27 86 -47 11 -226 54 -263 64 -19 5 -65 16 -103 25 l-67 15 -58 -30 -57
-29 -107 28 -106 29 -111 -52z m586 -6 c70 -17 160 -38 198 -47 39 -9 73 -21
77 -27 4 -6 8 -35 8 -63 0 -44 -3 -53 -17 -53 -10 1 -103 18 -207 39 -158 31
-191 40 -197 57 -11 28 -11 124 0 124 6 0 67 -14 138 -30z m-567 -109 c0 -52
-2 -59 -22 -65 -45 -12 -48 -9 -48 53 0 62 4 67 53 70 14 1 17 -8 17 -58z
m437 -218 c-2 -16 -4 -3 -4 27 0 30 2 43 4 28 2 -16 2 -40 0 -55z m-437 -3 l0
-60 -35 0 -35 0 0 53 c0 62 3 67 42 67 28 0 28 -1 28 -60z m567 -17 c-2 -16
-4 -3 -4 27 0 30 2 43 4 28 2 -16 2 -40 0 -55z m150 -15 c-2 -13 -4 -5 -4 17
-1 22 1 32 4 23 2 -10 2 -28 0 -40z"/>
<path d="M1288 840 c4 -55 22 -69 22 -17 l1 32 20 -37 c29 -55 49 -50 49 12 0
28 -4 50 -10 50 -5 0 -10 -17 -11 -37 l0 -38 -22 43 c-30 60 -53 57 -49 -8z"/>
<path d="M1414 825 c-17 -40 -18 -55 -4 -55 6 0 10 5 10 11 0 14 39 2 64 -20
18 -15 18 -15 11 8 -30 97 -56 115 -81 56z m44 -19 c-2 -10 -8 -13 -16 -7 -7
4 -10 15 -6 25 8 21 28 6 22 -18z"/>
<path d="M1507 833 c-12 -12 -7 -48 9 -72 13 -18 24 -22 50 -19 19 2 35 0 36
-4 2 -4 19 -10 38 -13 l35 -6 -27 16 c-23 13 -28 22 -28 56 0 35 -2 40 -19 34
-11 -3 -22 -1 -26 5 -7 11 -58 14 -68 3z m71 -22 c28 -24 28 -47 0 -54 -30 -8
-58 10 -58 37 0 41 21 47 58 17z"/>
<path d="M1923 940 c5 -18 35 -26 50 -11 7 7 3 8 -13 4 -13 -4 -26 0 -32 8 -8
12 -9 11 -5 -1z"/>
<path d="M2270 930 c0 -6 7 -10 15 -10 8 0 15 2 15 4 0 2 -7 6 -15 10 -8 3
-15 1 -15 -4z"/>
<path d="M2338 928 c5 -5 16 -8 23 -6 8 3 3 7 -10 11 -17 4 -21 3 -13 -5z"/>
<path d="M2062 794 c3 -87 5 -98 27 -115 34 -28 69 -34 110 -19 53 19 60 35
61 131 0 68 -3 88 -15 93 -13 4 -15 -9 -15 -83 0 -100 -12 -121 -68 -121 -56
0 -72 27 -72 125 0 71 -3 85 -16 85 -14 0 -15 -13 -12 -96z"/>
<path d="M2462 881 c-6 -4 -23 -34 -38 -66 -14 -33 -35 -78 -45 -99 -23 -48
-24 -56 -3 -56 8 0 20 14 25 30 11 29 13 30 74 30 60 0 63 -1 75 -30 7 -18 20
-30 30 -30 16 0 11 16 -32 110 -51 108 -64 125 -86 111z m44 -90 l23 -51 -49
0 c-28 0 -50 4 -50 9 0 16 42 103 47 97 3 -3 16 -28 29 -55z"/>
<path d="M2595 871 c3 -11 26 -64 51 -116 34 -73 49 -95 64 -95 11 0 20 1 20
3 0 1 20 49 45 106 49 114 51 121 31 121 -7 0 -21 -21 -31 -47 -10 -27 -21
-52 -25 -58 -3 -5 -12 -29 -20 -52 -7 -24 -16 -43 -19 -43 -3 0 -24 44 -47 98
-27 63 -47 98 -59 100 -13 3 -15 -1 -10 -17z"/>
<path d="M2908 882 l-68 -3 0 -109 0 -110 74 0 c41 0 78 5 81 10 4 6 -18 10
-59 10 l-66 0 0 40 0 39 55 3 c30 2 55 8 55 13 0 6 -25 11 -55 13 l-55 3 0 34
0 35 60 0 c33 0 60 4 60 9 0 15 -10 16 -82 13z"/>
<path d="M3010 775 c0 -98 2 -115 16 -115 13 0 15 14 13 88 -1 48 2 86 6 85 4
0 33 -39 64 -85 39 -57 63 -84 79 -86 23 -3 23 -3 20 109 -2 77 -7 114 -15
116 -9 3 -13 -22 -15 -93 l-3 -98 -55 84 c-62 94 -76 110 -96 110 -11 0 -14
-22 -14 -115z"/>
<path d="M3240 797 c0 -91 1 -96 26 -116 40 -31 113 -29 144 4 21 22 24 38 28
116 4 84 3 91 -14 87 -16 -3 -18 -12 -16 -83 3 -70 1 -83 -18 -102 -24 -26
-67 -30 -96 -9 -15 12 -20 30 -24 102 -3 57 -9 89 -17 92 -10 3 -13 -20 -13
-91z"/>
<path d="M3469 885 c-2 -2 -3 -53 -1 -114 l3 -111 75 0 c59 0 74 3 74 15 0 12
-13 15 -60 15 l-60 0 0 30 c0 45 1 45 59 45 34 0 56 5 58 13 4 9 -12 12 -59
12 l-63 0 -1 35 -1 35 65 0 c46 0 63 3 60 13 -3 8 -29 13 -75 14 -39 1 -72 0
-74 -2z"/>
<path d="M1830 765 c0 -94 3 -115 15 -115 11 0 15 20 17 97 l3 97 64 -97 c43
-65 70 -96 79 -92 7 3 16 5 18 5 2 0 4 50 4 110 0 90 -3 110 -15 110 -11 0
-15 -19 -17 -92 l-3 -93 -59 93 c-47 72 -65 92 -83 92 -23 0 -23 -2 -23 -115z"/>
<path d="M2275 740 c3 -5 24 -10 46 -10 21 0 39 5 39 10 0 6 -21 10 -46 10
-27 0 -43 -4 -39 -10z"/>
<path d="M1876 589 c-34 -27 -37 -88 -4 -119 28 -26 79 -26 103 0 16 17 16 20
2 20 -9 0 -19 -4 -22 -10 -9 -15 -52 -12 -69 6 -9 8 -16 28 -16 44 0 53 53 78
92 43 17 -15 18 -15 18 1 0 16 -36 36 -64 36 -7 0 -25 -9 -40 -21z"/>
<path d="M2910 535 l0 -75 53 2 c50 1 50 2 10 5 l-43 4 0 70 c0 39 -4 69 -10
69 -6 0 -10 -32 -10 -75z"/>
<path d="M3020 600 c0 -5 5 -10 10 -10 6 0 10 5 10 10 0 6 -4 10 -10 10 -5 0
-10 -4 -10 -10z"/>
<path d="M3260 600 c0 -5 5 -10 10 -10 6 0 10 5 10 10 0 6 -4 10 -10 10 -5 0
-10 -4 -10 -10z"/>
<path d="M3573 584 c4 -23 2 -25 -19 -20 -38 10 -64 -10 -64 -47 0 -44 15 -57
67 -57 l43 0 0 75 c0 62 -3 75 -16 75 -12 0 -15 -7 -11 -26z m-5 -72 c2 -22
-2 -34 -12 -38 -22 -8 -46 13 -46 41 0 28 9 37 35 33 15 -2 21 -12 23 -36z"/>
<path d="M3317 575 c-4 -8 -18 -15 -32 -15 -23 0 -25 -3 -25 -50 0 -27 5 -50
10 -50 6 0 10 21 10 46 0 38 3 45 18 42 12 -2 18 -15 20 -46 3 -39 5 -42 30
-41 17 1 21 3 10 6 -13 3 -18 15 -18 43 0 21 4 40 9 42 4 2 0 11 -9 21 -15 16
-18 16 -23 2z"/>
<path d="M3093 562 c-32 -3 -33 -4 -33 -53 0 -60 18 -66 22 -6 3 37 6 42 28
42 22 0 25 -5 28 -42 2 -24 7 -43 12 -43 5 0 10 19 12 43 3 37 6 42 28 42 22
0 25 -5 28 -42 2 -24 7 -43 13 -43 15 0 10 77 -7 94 -18 19 -20 19 -45 6 -11
-6 -27 -7 -36 -3 -10 5 -33 7 -50 5z"/>
<path d="M3390 550 c-24 -24 -26 -53 -4 -74 20 -20 68 -21 84 -1 10 12 10 15
-2 15 -8 0 -19 -5 -25 -11 -15 -15 -43 -4 -43 16 0 11 11 15 41 15 37 0 40 2
33 23 -13 41 -51 50 -84 17z m68 -17 c2 -9 -7 -13 -27 -13 -21 0 -31 5 -31 16
0 19 51 16 58 -3z"/>
<path d="M2013 534 c-15 -24 -15 -29 -2 -53 16 -29 61 -40 85 -20 17 14 19 70
2 87 -22 22 -66 14 -85 -14z m65 7 c22 -14 11 -65 -15 -69 -27 -4 -44 25 -32
56 9 23 25 28 47 13z"/>
<path d="M2130 511 c0 -28 5 -53 10 -56 6 -4 10 9 10 33 0 43 18 66 44 56 11
-4 16 -18 16 -44 0 -22 5 -42 10 -45 6 -4 10 11 10 38 0 31 5 47 15 51 30 11
45 -5 45 -50 0 -24 5 -44 11 -44 6 0 9 21 7 53 l-3 52 -87 2 -88 3 0 -49z"/>
<path d="M2334 489 c2 -65 16 -112 16 -55 0 25 3 27 29 21 36 -8 61 15 61 54
0 38 -19 51 -68 49 l-41 -1 3 -68z m76 47 c20 -26 8 -61 -22 -64 -22 -3 -29 2
-34 22 -11 44 29 74 56 42z"/>
<path d="M2465 550 c-11 -17 3 -24 20 -10 16 13 45 7 45 -10 0 -5 -9 -10 -19
-10 -34 0 -51 -12 -51 -35 0 -27 20 -37 61 -28 29 5 30 8 27 52 -3 45 -4 46
-40 49 -20 2 -39 -2 -43 -8z m65 -60 c0 -15 -7 -20 -25 -20 -41 0 -30 37 13
39 6 1 12 -8 12 -19z"/>
<path d="M2577 553 c-7 -14 5 -93 14 -93 5 0 6 13 3 30 -7 34 9 60 36 60 21 0
30 -19 30 -61 0 -16 5 -29 10 -29 14 0 12 74 -2 88 -13 13 -84 17 -91 5z"/>
<path d="M2715 509 c16 -30 23 -58 20 -70 -10 -30 12 -22 24 9 5 15 19 46 30
70 15 31 17 42 7 42 -7 0 -17 -14 -22 -32 -13 -44 -27 -45 -47 -3 -9 19 -21
35 -27 35 -6 0 1 -23 15 -51z"/>
<path d="M3020 510 c0 -27 5 -50 10 -50 6 0 10 23 10 50 0 28 -4 50 -10 50 -5
0 -10 -22 -10 -50z"/>
<path d="M2948 356 c-3 -3 -2252 -16 -2671 -16 -110 0 -146 -3 -141 -12 5 -8
116 -10 438 -5 237 4 1058 10 1824 14 779 3 1392 10 1392 15 0 8 -833 11 -842
4z"/>
<path d="M3623 200 c0 -36 2 -50 4 -32 2 17 2 47 0 65 -2 17 -4 3 -4 -33z"/>
<path d="M1248 243 c-37 -4 -38 -5 -38 -44 0 -21 5 -39 10 -39 6 0 10 7 10 15
0 8 9 15 20 15 11 0 20 5 20 10 0 6 -9 10 -21 10 -11 0 -17 5 -14 10 3 6 19
10 36 10 16 0 29 5 29 10 0 6 -3 9 -7 8 -5 -1 -25 -3 -45 -5z"/>
<path d="M1390 240 c0 -5 5 -10 10 -10 6 0 10 5 10 10 0 6 -4 10 -10 10 -5 0
-10 -4 -10 -10z"/>
<path d="M1497 244 c-11 -11 -8 -84 3 -84 6 0 10 11 10 25 0 33 16 32 28 -2
l10 -28 1 33 c1 22 -4 32 -14 32 -7 0 -18 7 -23 15 -4 9 -11 12 -15 9z"/>
<path d="M1570 205 c0 -25 5 -45 10 -45 6 0 9 20 8 45 0 25 -5 45 -10 45 -4 0
-8 -20 -8 -45z"/>
<path d="M1790 191 c0 -36 4 -60 9 -56 10 6 7 102 -3 112 -3 4 -6 -22 -6 -56z"/>
<path d="M1860 205 c0 -25 5 -45 10 -45 6 0 10 9 10 20 0 13 7 20 20 20 13 0
20 -7 20 -20 0 -16 7 -20 30 -20 28 0 30 3 30 35 0 19 -4 35 -10 35 -5 0 -10
-11 -10 -24 0 -14 -4 -28 -10 -31 -6 -3 -10 4 -10 17 -1 33 -23 58 -54 58 -24
0 -26 -3 -26 -45z m60 15 c0 -5 -9 -10 -20 -10 -11 0 -20 5 -20 10 0 6 9 10
20 10 11 0 20 -4 20 -10z"/>
<path d="M2112 205 c-2 -26 2 -45 8 -45 5 0 10 20 10 45 0 58 -14 58 -18 0z"/>
<path d="M2410 190 c0 -36 4 -60 11 -60 6 0 9 22 7 60 -1 33 -6 60 -10 60 -5
0 -8 -27 -8 -60z"/>
<path d="M2481 232 c-12 -23 -4 -59 16 -66 8 -3 25 -3 39 0 30 8 34 44 4 44
-13 0 -18 -5 -14 -15 4 -9 0 -15 -9 -15 -22 0 -30 31 -13 48 13 13 17 13 32 1
15 -12 17 -12 12 1 -7 23 -55 25 -67 2z"/>
<path d="M2900 210 c0 -22 3 -40 8 -40 4 0 6 18 4 40 -2 22 -6 40 -8 40 -2 0
-4 -18 -4 -40z"/>
<path d="M2965 230 c-9 -28 2 -57 25 -63 21 -5 59 17 48 29 -4 4 -15 1 -23 -6
-20 -16 -39 -1 -33 26 3 14 11 18 32 16 17 -2 25 1 21 7 -12 20 -63 13 -70 -9z"/>
<path d="M3198 238 c-7 -20 4 -68 16 -68 9 0 12 25 7 73 -1 11 -19 8 -23 -5z"/>
<path d="M3422 213 c4 -45 24 -55 21 -11 -2 48 -2 48 -14 48 -6 0 -9 -16 -7
-37z"/>
<path d="M140 180 c0 -33 4 -60 10 -60 6 0 10 27 10 60 0 33 -4 60 -10 60 -6
0 -10 -27 -10 -60z"/>
<path d="M210 195 c0 -46 0 -46 33 -43 30 3 32 5 32 43 0 38 -2 40 -32 43 -33
3 -33 3 -33 -43z m50 15 c0 -5 -7 -10 -15 -10 -8 0 -15 5 -15 10 0 6 7 10 15
10 8 0 15 -4 15 -10z m0 -30 c0 -5 -7 -10 -15 -10 -8 0 -15 5 -15 10 0 6 7 10
15 10 8 0 15 -4 15 -10z"/>
<path d="M377 213 c-3 -15 -1 -36 3 -47 7 -16 9 -9 9 27 1 52 -4 61 -12 20z"/>
<path d="M410 195 c0 -25 5 -45 10 -45 6 0 10 20 10 45 0 25 -4 45 -10 45 -5
0 -10 -20 -10 -45z"/>
<path d="M490 230 c0 -5 -9 -10 -20 -10 -12 0 -22 -9 -26 -24 -8 -32 2 -46 32
-46 22 0 24 4 24 45 0 25 -2 45 -5 45 -3 0 -5 -4 -5 -10z m-8 -45 c0 -5 -5
-11 -11 -13 -6 -2 -11 4 -11 13 0 9 5 15 11 13 6 -2 11 -8 11 -13z"/>
<path d="M520 195 c0 -25 5 -45 10 -45 6 0 10 19 8 45 -4 58 -18 58 -18 0z"/>
<path d="M740 180 c0 -35 2 -61 5 -59 7 8 9 108 2 116 -4 3 -7 -22 -7 -57z"/>
<path d="M808 233 c-2 -5 -1 -26 3 -48 5 -35 7 -37 14 -17 9 28 35 29 35 1 0
-11 5 -17 10 -14 13 8 13 85 0 85 -5 0 -10 -7 -10 -15 0 -8 -7 -15 -15 -15 -8
0 -15 7 -15 15 0 15 -16 21 -22 8z"/>
<path d="M2147 233 c-9 -15 5 -73 17 -73 7 0 10 14 8 40 -4 37 -14 51 -25 33z"/>
<path d="M3360 225 c-26 -32 15 -75 44 -45 8 9 6 11 -11 5 -19 -5 -23 -2 -23
15 0 18 4 20 22 14 20 -6 21 -5 9 10 -17 20 -25 20 -41 1z"/>
<path d="M3470 225 c-19 -23 -8 -50 23 -53 23 -3 27 0 27 22 0 32 -32 52 -50
31z m30 -25 c0 -11 -4 -20 -10 -20 -5 0 -10 9 -10 20 0 11 5 20 10 20 6 0 10
-9 10 -20z"/>
<path d="M3539 237 c-6 -12 -5 -67 2 -67 5 0 9 8 9 18 0 10 5 23 11 29 7 7 6
12 -5 16 -9 4 -16 5 -17 4z"/>
<path d="M1435 216 c-17 -12 -17 -14 6 -30 l24 -18 -24 7 c-16 5 -21 4 -17 -4
4 -6 18 -11 31 -11 20 0 24 5 23 26 -3 35 -20 47 -43 30z"/>
<path d="M1618 223 c-19 -5 -26 -63 -8 -63 6 0 10 11 10 25 0 14 5 25 10 25 6
0 10 -11 10 -25 0 -14 5 -25 11 -25 13 0 8 63 -6 66 -5 1 -18 0 -27 -3z"/>
<path d="M1680 215 c-16 -20 -5 -45 23 -53 22 -6 22 -6 -3 -13 -22 -5 -23 -7
-7 -14 27 -12 48 13 45 53 -2 27 -8 36 -24 38 -12 2 -27 -3 -34 -11z m40 -19
c0 -8 -4 -17 -9 -21 -12 -7 -24 12 -16 25 9 15 25 12 25 -4z"/>
<path d="M1990 201 c0 -17 5 -33 10 -36 6 -3 10 3 10 14 0 11 5 23 10 26 17
10 11 25 -10 25 -15 0 -20 -7 -20 -29z"/>
<path d="M2040 196 c0 -20 5 -36 10 -36 6 0 10 11 10 25 0 14 5 25 10 25 6 0
10 -11 10 -25 0 -14 5 -25 11 -25 6 0 9 14 7 33 -2 27 -8 33 -30 35 -26 3 -28
1 -28 -32z"/>
<path d="M2192 198 c2 -28 8 -34 31 -36 25 -3 27 -1 27 32 0 20 -4 36 -10 36
-5 0 -10 -11 -10 -25 0 -14 -4 -25 -10 -25 -5 0 -10 11 -10 25 0 14 -5 25 -11
25 -6 0 -9 -14 -7 -32z"/>
<path d="M2266 222 c-10 -9 -7 -50 4 -57 6 -4 10 5 10 19 0 32 12 33 25 4 6
-13 19 -23 30 -23 16 0 20 7 20 30 0 28 -2 30 -42 32 -23 0 -44 -1 -47 -5z
m81 -38 c-3 -3 -12 -4 -19 -1 -8 3 -5 6 6 6 11 1 17 -2 13 -5z"/>
<path d="M2577 223 c-24 -24 8 -74 36 -56 7 4 3 9 -9 14 -17 7 -17 8 5 8 17 1
22 5 17 17 -3 9 -6 18 -6 20 0 7 -36 5 -43 -3z m28 -13 c3 -5 1 -10 -4 -10 -6
0 -11 5 -11 10 0 6 2 10 4 10 3 0 8 -4 11 -10z"/>
<path d="M2640 195 c0 -19 5 -35 10 -35 6 0 10 11 10 25 0 14 5 25 10 25 6 0
10 -9 10 -19 0 -11 5 -23 10 -26 6 -4 10 8 10 29 0 33 -2 36 -30 36 -28 0 -30
-3 -30 -35z"/>
<path d="M2717 224 c-24 -24 7 -69 39 -57 17 6 16 8 -6 14 -25 7 -25 7 -2 8
17 1 22 6 20 19 -3 17 -38 29 -51 16z m33 -14 c0 -5 -4 -10 -10 -10 -5 0 -10
5 -10 10 0 6 5 10 10 10 6 0 10 -4 10 -10z"/>
<path d="M2780 199 c0 -16 5 -29 10 -29 6 0 10 8 10 19 0 26 55 35 57 9 1 -10
-3 -18 -8 -18 -6 0 -7 5 -4 10 7 11 -8 14 -18 3 -12 -11 13 -31 33 -26 14 4
20 14 20 34 0 27 -2 28 -50 27 -48 0 -50 -1 -50 -29z"/>
<path d="M3057 224 c-4 -4 -7 -18 -7 -31 0 -19 5 -23 31 -23 27 0 30 3 27 28
-3 26 -34 43 -51 26z m39 -15 c3 -6 1 -16 -5 -22 -9 -9 -14 -8 -21 3 -9 15 -4
30 10 30 5 0 12 -5 16 -11z"/>
<path d="M3123 200 c0 -35 14 -41 19 -7 4 28 21 25 30 -5 5 -20 6 -18 7 10 1
29 -2 32 -27 32 -25 0 -29 -4 -29 -30z"/>
<path d="M3240 199 c0 -34 17 -39 22 -8 2 16 11 23 33 25 28 2 29 1 8 -8 -33
-16 -29 -38 7 -38 27 0 30 3 30 29 0 29 -1 30 -50 29 -48 0 -50 -1 -50 -29z
m80 -9 c0 -5 -5 -10 -11 -10 -5 0 -7 5 -4 10 3 6 8 10 11 10 2 0 4 -4 4 -10z"/>
<path d="M302 188 c2 -28 8 -34 31 -36 25 -3 27 -1 27 32 0 20 -4 36 -10 36
-5 0 -10 -11 -10 -25 0 -14 -4 -25 -10 -25 -5 0 -10 11 -10 25 0 14 -5 25 -11
25 -6 0 -9 -14 -7 -32z"/>
<path d="M550 191 c0 -16 5 -33 10 -36 6 -4 10 5 10 19 0 14 5 26 10 26 6 0
10 -9 10 -19 0 -11 5 -23 11 -26 7 -5 9 5 7 26 -2 29 -7 35 -30 37 -25 3 -28
0 -28 -27z"/>
<path d="M634 206 c-9 -25 1 -51 19 -50 9 1 17 -3 17 -8 0 -6 -9 -8 -20 -5
-11 3 -20 1 -20 -5 0 -5 12 -8 28 -6 24 3 27 7 27 43 0 34 -3 40 -23 43 -13 2
-24 -3 -28 -12z m36 -22 c0 -17 -22 -14 -28 4 -2 7 3 12 12 12 9 0 16 -7 16
-16z"/>
<path d="M895 199 c-10 -31 16 -55 44 -40 24 13 27 31 9 49 -19 19 -46 14 -53
-9z m45 -15 c0 -8 -7 -14 -15 -14 -15 0 -21 21 -9 33 10 9 24 -2 24 -19z"/>
<path d="M970 191 c0 -35 8 -42 38 -34 16 4 22 13 22 34 0 16 -4 29 -10 29 -5
0 -10 -11 -10 -25 0 -14 -4 -25 -10 -25 -5 0 -10 11 -10 25 0 14 -4 25 -10 25
-5 0 -10 -13 -10 -29z"/>
<path d="M1047 213 c-13 -12 -7 -24 16 -33 22 -9 22 -9 -3 -10 -21 0 -22 -2
-8 -10 19 -12 48 -3 48 15 0 6 -10 17 -22 24 l-23 11 24 -6 c16 -4 21 -3 17 5
-8 12 -39 15 -49 4z"/>
<path d="M1117 214 c-21 -21 4 -67 31 -56 13 5 12 7 -4 13 -17 7 -17 8 4 8 17
1 23 6 20 19 -3 17 -38 29 -51 16z m33 -8 c0 -3 -4 -8 -10 -11 -5 -3 -10 -1
-10 4 0 6 5 11 10 11 6 0 10 -2 10 -4z"/>
<path d="M1280 190 c0 -16 5 -30 10 -30 6 0 10 14 10 30 0 17 -4 30 -10 30 -5
0 -10 -13 -10 -30z"/>
<path d="M1321 188 l1 -33 10 28 c11 30 28 28 28 -4 0 -10 5 -19 11 -19 6 0 9
12 7 28 -2 21 -9 28 -30 30 -26 3 -28 1 -27 -30z"/>
<path d="M1390 190 c0 -16 5 -30 10 -30 6 0 10 14 10 30 0 17 -4 30 -10 30 -5
0 -10 -13 -10 -30z"/>
<path d="M913 93 c-572 -2 -783 -6 -783 -14 0 -9 195 -10 742 -5 409 3 1231 9
1828 12 597 4 1087 8 1089 10 4 4 -1136 2 -2876 -3z"/>
</g>
</svg>
